PathFileType  4	(X/Y/Z) C:\Users\antoi\Documents\MyRepositories\mobilecap\ResultsAnalysis
DataRate	CameraRate	NumFrames	NumMarkers	Units	OrigDataRate	OrigDataStartFrame	OrigNumFrames
100.0	100.0	4	51	mm	100.0	101	269
Frame#	Time	r_knee			r_shank_antsup			r_ankle			r_calc			r_5meta			r_toe			L_knee			L_shank_antsup			L_ankle			L_calc			L_5meta			L_toe			r_sh2			r_sh3			r_sh4			L_sh2			L_sh3			r_thigh1			r_thigh2			r_thigh3			r_thigh4			r_thigh5			L_thigh1			L_thigh2			L_thigh3			L_thigh4			r.ASIS			r.PSIS			L.ASIS			L.PSIS			C7			R_Shoulder			L_Shoulder			R_Sternum			L_Sternum			R_humerus			R_elbow_med			R_elbow_lat			R_forearm			R_wrist_radius			R_wrist_ulna			L_humerus			L_elbow_med			L_elbow_lat			L_forearm			L_wrist_radius			L_wrist_ulna			R_HJC			L_HJC			R_HJC_reg			L_HJC_reg			
		X1	Y1	Z1	X2	Y2	Z2	X3	Y3	Z3	X4	Y4	Z4	X5	Y5	Z5	X6	Y6	Z6	X7	Y7	Z7	X8	Y8	Z8	X9	Y9	Z9	X10	Y10	Z10	X11	Y11	Z11	X12	Y12	Z12	X13	Y13	Z13	X14	Y14	Z14	X15	Y15	Z15	X16	Y16	Z16	X17	Y17	Z17	X18	Y18	Z18	X19	Y19	Z19	X20	Y20	Z20	X21	Y21	Z21	X22	Y22	Z22	X23	Y23	Z23	X24	Y24	Z24	X25	Y25	Z25	X26	Y26	Z26	X27	Y27	Z27	X28	Y28	Z28	X29	Y29	Z29	X30	Y30	Z30	X31	Y31	Z31	X32	Y32	Z32	X33	Y33	Z33	X34	Y34	Z34	X35	Y35	Z35	X36	Y36	Z36	X37	Y37	Z37	X38	Y38	Z38	X39	Y39	Z39	X40	Y40	Z40	X41	Y41	Z41	X42	Y42	Z42	X43	Y43	Z43	X44	Y44	Z44	X45	Y45	Z45	X46	Y46	Z46	X47	Y47	Z47	X48	Y48	Z48	X49	Y49	Z49	X50	Y50	Z50	X51	Y51	Z51	

101	1.00000000	-957.84667	743.62678	-445.00333	-973.41237	643.69460	-452.93933	-1240.97858	446.69164	-458.73350	-1311.17047	433.33198	-508.34412	-1154.71574	353.68369	-411.81610	-1110.64801	370.63851	-463.48417	-944.41808	746.14699	-736.52109	-955.28698	648.29967	-721.08614	-1227.95797	449.56186	-723.22050	-1312.50631	437.87850	-674.24258	-1157.16087	352.96579	-758.52401	-1103.75452	363.69266	-703.89271	-1051.18535	560.06239	-455.99677	-1021.87503	684.28102	-411.66730	-1104.65170	606.40268	-410.40898	-1004.21586	710.22368	-764.55263	-1090.77078	624.02842	-769.89598	-910.28943	1021.95758	-415.25656	-899.73555	911.93705	-431.76456	-951.79079	878.97966	-404.40449	-1022.65370	1006.68914	-405.40484	-1004.00394	892.85843	-421.44973	-873.80497	994.03611	-748.86563	-861.93903	855.73390	-726.59480	-977.23226	980.72939	-785.53510	-966.15309	850.50213	-757.88626	-870.53420	1194.69821	-456.10731	-1054.70454	1282.22918	-549.16061	-854.39555	1199.03434	-710.12742	-1044.08143	1282.68843	-644.61315	-913.57789	1714.83600	-566.65310	-850.42442	1698.03474	-416.82898	-822.90017	1684.45116	-695.81484	-801.51455	1626.07979	-531.65120	-794.57339	1629.52326	-576.91305	-763.40080	1641.87512	-350.57771	-678.69843	1451.56219	-281.50915	-675.73540	1497.52423	-232.01156	-598.57246	1545.12635	-258.45521	-456.71566	1563.32934	-350.85696	-443.74483	1545.59776	-305.99687	-727.35326	1639.30102	-755.08568	-606.51642	1473.50713	-790.85905	-597.55890	1531.90687	-843.48780	-530.90085	1566.45539	-816.72276	-366.83399	1564.15852	-745.23830	-362.99590	1559.10297	-797.03913	-972.01060	1133.25527	-490.54690	-956.94226	1136.50767	-679.48127	-961.96389	1141.27217	-502.58753	-943.37912	1142.07644	-669.57042	
102	1.01000000	-948.39176	753.32864	-443.01567	-964.32786	653.30812	-450.52226	-1232.21150	455.82230	-459.05417	-1301.67438	447.92452	-508.69257	-1152.32355	356.24778	-411.59128	-1106.84429	370.35041	-463.08523	-940.81779	755.84085	-738.09232	-951.04724	657.95728	-723.21122	-1221.47170	455.99476	-724.41387	-1305.97725	448.45134	-675.54092	-1155.15633	354.68411	-758.70507	-1101.72058	363.28594	-704.03691	-1042.10446	569.87097	-454.29535	-1012.85318	694.48769	-409.58582	-1096.42403	616.27106	-409.49177	-1000.64248	719.72400	-766.29043	-1086.74260	632.88206	-771.04904	-895.27750	1031.15737	-414.95196	-886.34566	920.85865	-430.28184	-938.98416	888.86778	-402.98362	-1007.89357	1017.63116	-404.88797	-990.83987	903.41836	-420.22380	-861.25147	1001.96125	-749.33048	-853.77945	862.97729	-727.95836	-964.96204	992.10659	-786.31456	-958.15144	861.42741	-759.32878	-854.56287	1206.37937	-456.54751	-1039.93604	1290.55983	-550.04438	-838.05524	1211.10659	-710.20693	-1029.43334	1291.25600	-645.44281	-907.29828	1724.57151	-567.36919	-845.09554	1710.52014	-418.40571	-817.75666	1695.84867	-696.06433	-793.50188	1638.02030	-532.05230	-786.72718	1641.41954	-576.73302	-757.84379	1657.25028	-349.72148	-672.71468	1468.79816	-274.61052	-670.57499	1516.21377	-225.75550	-594.72344	1565.07089	-254.14143	-454.08787	1585.12548	-347.51165	-440.38802	1568.97891	-302.03517	-722.52764	1653.12645	-755.76728	-599.42658	1489.54158	-795.37226	-591.66781	1549.23642	-847.69044	-525.51264	1584.22368	-820.86582	-360.86064	1585.01938	-751.18131	-357.32176	1580.46226	-802.89396	-954.87246	1143.13833	-491.14311	-939.42338	1146.67147	-680.04220	-944.66822	1151.44619	-502.87302	-926.30475	1152.66319	-669.65948	
103	1.02000000	-936.88205	763.92691	-440.92990	-953.20295	663.53918	-448.01516	-1221.13079	465.84290	-459.19127	-1289.71880	464.00117	-508.96943	-1149.45997	359.35835	-411.59462	-1102.41332	370.34071	-462.77033	-934.80129	766.91263	-739.96467	-944.33886	668.60710	-725.53899	-1212.84037	463.57984	-725.61588	-1297.18296	461.10576	-677.02564	-1152.42366	357.14868	-758.97562	-1098.82680	363.03438	-704.05751	-1031.09022	580.20125	-452.05186	-1001.86257	705.46647	-407.36388	-1085.35957	626.96653	-408.58619	-994.33618	730.44476	-768.20455	-1080.30077	643.17785	-772.36905	-879.61931	1041.05559	-414.72794	-871.64193	930.63957	-428.56610	-924.67750	899.23012	-401.29205	-992.29570	1028.69563	-404.06977	-976.33322	914.27523	-418.91196	-847.92926	1011.13860	-749.69664	-843.91802	872.04625	-729.51443	-951.70190	1004.02781	-787.17383	-948.17660	873.01034	-760.76225	-838.99052	1218.90759	-457.12179	-1025.43667	1299.58563	-550.88112	-822.55581	1223.43669	-710.03000	-1015.15316	1300.41578	-646.49834	-900.58801	1734.52002	-568.04426	-839.33131	1722.64905	-420.40232	-812.35103	1706.97976	-696.48916	-785.43618	1649.94229	-532.39263	-778.95523	1653.23063	-576.75179	-752.14459	1672.37800	-348.89049	-667.34179	1485.47583	-267.78280	-666.00516	1534.35072	-219.52411	-591.27220	1584.03718	-249.80119	-451.59032	1605.10506	-343.95609	-437.34712	1590.43651	-298.00382	-717.64858	1666.41158	-756.45622	-592.66783	1504.54778	-800.47199	-585.94046	1565.63679	-851.76458	-520.07833	1600.79691	-825.32157	-355.00459	1604.41076	-757.10464	-351.76790	1600.34960	-808.82271	-938.23528	1153.89947	-491.48710	-922.56617	1157.25972	-680.37091	-927.76953	1162.41288	-503.04020	-909.88102	1163.85563	-669.37286	
104	1.03000000	-923.13833	774.81460	-439.01254	-940.11074	674.34226	-445.14140	-1207.61652	476.81296	-458.42066	-1275.01003	481.17462	-509.19118	-1146.01816	362.95559	-411.65933	-1097.39969	370.58968	-462.15836	-925.76275	778.77014	-742.09742	-934.91836	679.91134	-728.20006	-1201.90546	472.27819	-726.99478	-1285.67184	475.64620	-678.47454	-1149.08227	360.31542	-759.19979	-1095.16474	362.94728	-704.32849	-1018.18053	590.91771	-449.32395	-989.33330	716.74077	-405.25317	-1072.52932	638.76667	-407.16238	-985.35745	741.91308	-770.15150	-1071.26604	654.49084	-773.86201	-863.74310	1051.36501	-414.38508	-855.98925	940.93858	-426.88462	-909.34353	909.77176	-399.59755	-976.32337	1039.47435	-403.08422	-960.86756	924.96026	-417.77331	-834.09254	1021.31008	-750.21527	-832.16895	882.35708	-731.18080	-937.79115	1015.99787	-788.00409	-936.25989	884.70562	-762.08015	-823.95147	1231.82273	-457.63927	-1011.58053	1309.18263	-551.66492	-808.25073	1235.78264	-709.66558	-1001.31573	1310.06031	-647.72503	-893.28059	1744.60530	-568.61458	-832.83970	1734.24302	-422.28994	-806.43396	1717.84399	-696.92375	-777.09508	1661.79937	-532.53003	-770.91195	1664.92093	-576.84976	-746.27966	1686.92704	-348.04439	-662.21017	1501.20269	-261.25707	-661.76670	1551.55806	-213.80809	-587.92312	1601.60393	-245.33377	-448.85019	1623.12705	-340.10228	-434.32860	1609.62016	-294.09271	-712.37934	1678.90896	-757.27713	-586.13188	1518.23868	-805.99058	-580.26623	1580.61843	-855.56258	-514.54368	1615.89859	-830.00954	-349.12276	1622.01609	-762.99774	-346.24200	1618.40468	-814.74343	-922.44059	1165.24939	-491.60591	-906.70622	1168.08314	-680.49270	-911.85676	1173.77468	-503.27147	-894.14856	1175.28891	-669.00186	
